<svg width="561" height="561" viewBox="0 0 561 561" fill="none" xmlns="http://www.w3.org/2000/svg">
<path d="M387.247 174.094C443.073 229.92 477.878 296.164 489.039 358.119C500.201 420.077 487.714 477.691 449.041 516.363C410.368 555.036 352.754 567.523 290.797 556.361C228.842 545.2 162.597 510.396 106.772 454.57C50.9459 398.744 16.1414 332.5 4.98014 270.544C-6.18154 208.587 6.30533 150.973 44.978 112.3C83.6507 73.6277 141.265 61.1408 203.222 72.3025C265.177 83.4638 331.422 118.268 387.247 174.094Z" stroke="black" stroke-width="1.04658"/>
<path d="M420.738 140.604C476.564 196.429 511.368 262.674 522.529 324.629C533.691 386.586 521.204 444.2 482.531 482.873C443.859 521.546 386.245 534.033 324.287 522.871C262.332 511.71 196.088 476.905 140.262 421.08C84.4364 365.254 49.6319 299.009 38.4706 237.054C27.3089 175.097 39.7958 117.483 78.4685 78.8101C117.141 40.1374 174.755 27.6505 236.713 38.8122C298.668 49.9735 364.912 84.778 420.738 140.604Z" stroke="black" stroke-width="1.04658"/>
<path d="M454.228 107.113C510.054 162.939 544.859 229.183 556.02 291.138C567.182 353.096 554.695 410.71 516.022 449.383C477.349 488.055 419.735 500.542 357.778 489.38C295.823 478.219 229.578 443.415 173.752 387.589C117.927 331.763 83.1224 265.519 71.9611 203.564C60.7994 141.606 73.2863 83.9922 111.959 45.3195C150.632 6.64686 208.246 -5.84001 270.203 5.32168C332.158 16.4829 398.403 51.2874 454.228 107.113Z" stroke="black" stroke-width="1.04658"/>
</svg>
