<svg width="43" height="44" viewBox="0 0 43 44" fill="none" xmlns="http://www.w3.org/2000/svg">
<path d="M27.3686 6.41036L19.3347 11.5672L20.149 12.0131L27.2967 7.42505L39.4203 14.2923L32.4664 18.7558L32.8051 18.9412V19.507L38.2518 16.0108L39.395 16.6584L32.805 20.8882V21.8568L38.1452 18.4291L39.395 19.1371L32.805 23.367V24.3356L38.1452 20.9078L39.395 21.6159L32.805 25.8457V26.8143L41.07 21.5091L39.0187 20.3473L41.0699 19.0305L39.0186 17.8685L41.0699 16.5518L39.1252 15.4502L41.0951 14.1856L27.3686 6.41036H27.3686ZM29.9355 10.1069C28.1973 10.9791 25.882 11.1266 24.2519 10.469L21.0651 12.5145L31.5502 18.2543L34.5727 16.3143C33.3821 15.3744 33.4812 13.972 34.8157 12.8714L29.9354 10.1069H29.9355ZM19.1458 13.1593L13.3054 16.9677L24.5098 23.4177L24.6197 23.3475C24.8263 23.2145 25.1179 23.0261 25.4659 22.8011C26.1616 22.3514 27.0823 21.7551 28.0003 21.1602C29.3224 20.3034 30.0037 19.8614 30.6373 19.4504L19.1458 13.1593ZM28.686 13.256C28.6861 13.256 28.6861 13.256 28.6862 13.256C28.9505 13.2576 29.1927 13.3142 29.3736 13.4167C29.4789 13.4763 29.5606 13.5498 29.614 13.6331C29.6674 13.7164 29.6914 13.8077 29.6847 13.902C29.678 13.9962 29.6408 14.0915 29.5751 14.1823C29.5094 14.2732 29.4165 14.3578 29.3018 14.4314C29.1871 14.5051 29.0527 14.5662 28.9065 14.6114C28.7602 14.6566 28.6049 14.685 28.4494 14.6949C28.2938 14.7048 28.1411 14.696 28 14.6691C27.8588 14.6422 27.732 14.5977 27.6268 14.538C27.4142 14.4176 27.3023 14.2431 27.3158 14.0528C27.3293 13.8625 27.467 13.6721 27.6986 13.5234C27.8302 13.439 27.9873 13.371 28.1583 13.3247C28.3292 13.2784 28.5096 13.2549 28.686 13.256ZM10.6393 17.1487L1.93047 22.7386L3.87516 23.8402L1.90527 25.1047L3.95663 26.2666L1.90527 27.5835L3.95663 28.7454L1.90527 30.0622L15.6318 37.8375L23.9191 32.5178V31.5494L15.7037 36.8227L3.5802 29.9554L4.75798 29.1994L15.6318 35.3587L23.9191 30.0391V29.0708L15.7037 34.3441L3.5802 27.4767L4.75798 26.7207L15.6318 32.88L23.9191 27.5604V26.5921L15.7037 31.8654L3.5802 24.998L4.6766 24.2941L15.6571 30.5139L23.9191 25.2105V24.7933L23.4664 24.5327L15.7288 29.4992L3.60556 22.6319L11.4349 17.6065L10.6392 17.1485L10.6393 17.1487ZM12.3298 18.122L8.45311 20.6102C9.6437 21.55 9.54456 22.9524 8.21004 24.0531L13.0904 26.8176C14.8285 25.9454 17.1436 25.7979 18.7737 26.4554L22.5715 24.0177L12.3296 18.1219L12.3298 18.122ZM31.3178 20.7816C30.6532 21.2127 30.0671 21.5932 28.8092 22.4083C27.9642 22.9561 27.119 23.5034 26.2735 24.0503C25.9251 24.2754 25.6327 24.4642 25.4243 24.5982C25.4168 24.6032 25.4138 24.6048 25.4065 24.6095V31.7088L31.3179 27.7357V20.7816H31.3178ZM14.7115 22.2259C14.9758 22.2275 15.2181 22.2842 15.3989 22.3868C15.6115 22.5072 15.7234 22.6817 15.7099 22.872C15.6964 23.0623 15.5587 23.2527 15.3271 23.4014C15.0954 23.55 14.7889 23.6447 14.4748 23.6647C14.1607 23.6847 13.8649 23.6283 13.6523 23.5079C13.4397 23.3875 13.3279 23.213 13.3414 23.0227C13.3548 22.8324 13.4925 22.642 13.7242 22.4933C13.8557 22.4089 14.0129 22.341 14.1838 22.2947C14.3548 22.2484 14.5352 22.2249 14.7115 22.226V22.2259Z" fill="#C62F94"/>
</svg>
