<svg width="652" height="467" viewBox="0 0 652 467" fill="none" xmlns="http://www.w3.org/2000/svg">
<rect width="652" height="467" fill="#1E1E1E"/>
<g clip-path="url(#clip0_101_52)">
<rect width="652" height="467" fill="white"/>
<g opacity="0.6" filter="url(#filter0_f_101_52)">
<ellipse cx="149.529" cy="316.457" rx="474.529" ry="226.543" fill="#FFECAE"/>
</g>
<g opacity="0.6" filter="url(#filter1_f_101_52)">
<ellipse cx="587.699" cy="72.2003" rx="388.759" ry="176.2" fill="#4F8DEC"/>
</g>
<rect x="115" y="98" width="423" height="271" stroke="#3447FF" stroke-width="2" stroke-dasharray="5 6"/>
<mask id="path-4-outside-1_101_52" maskUnits="userSpaceOnUse" x="193" y="215" width="268" height="38" fill="black">
<rect fill="white" x="193" y="215" width="268" height="38"/>
<path d="M236.127 238.67L232.649 240.652V222.066H241.998V246H232.649L204.489 229.695L207.967 227.675V246H198.618V222.066H207.967L236.127 238.67ZM272.096 246.748C266.661 246.748 262.285 246.274 258.969 245.327C255.653 244.355 253.235 242.933 251.714 241.064C250.218 239.169 249.47 236.825 249.47 234.033C249.47 231.241 250.218 228.91 251.714 227.04C253.235 225.145 255.653 223.724 258.969 222.776C262.285 221.804 266.661 221.318 272.096 221.318C277.531 221.318 281.906 221.804 285.222 222.776C288.538 223.724 290.944 225.145 292.44 227.04C293.96 228.91 294.721 231.241 294.721 234.033C294.721 236.825 293.96 239.169 292.44 241.064C290.944 242.933 288.538 244.355 285.222 245.327C281.906 246.274 277.531 246.748 272.096 246.748ZM272.096 239.643C274.664 239.643 276.882 239.493 278.752 239.194C280.622 238.87 282.068 238.309 283.09 237.511C284.113 236.688 284.624 235.529 284.624 234.033C284.624 232.537 284.113 231.39 283.09 230.592C282.068 229.77 280.622 229.209 278.752 228.91C276.882 228.585 274.664 228.423 272.096 228.423C269.528 228.423 267.271 228.585 265.327 228.91C263.407 229.209 261.899 229.77 260.802 230.592C259.73 231.39 259.194 232.537 259.194 234.033C259.194 235.529 259.73 236.688 260.802 237.511C261.899 238.309 263.407 238.87 265.327 239.194C267.271 239.493 269.528 239.643 272.096 239.643ZM311.552 222.066V238.895H333.355V246H302.203V222.066H311.552ZM340.661 222.066H350.01V246H340.661V222.066ZM385.347 222.066C388.713 222.066 391.493 222.39 393.687 223.038C395.881 223.686 397.601 224.572 398.848 225.693C400.094 226.815 400.967 228.099 401.465 229.545C401.989 230.966 402.251 232.462 402.251 234.033C402.251 235.604 401.964 237.112 401.391 238.558C400.817 239.979 399.87 241.251 398.548 242.372C397.252 243.494 395.519 244.379 393.35 245.028C391.206 245.676 388.538 246 385.347 246H358.421V222.066H385.347ZM367.771 238.521H384.973C386.369 238.521 387.554 238.433 388.526 238.259C389.498 238.059 390.271 237.773 390.845 237.399C391.443 237.025 391.867 236.563 392.116 236.015C392.39 235.442 392.527 234.781 392.527 234.033C392.527 233.285 392.39 232.637 392.116 232.088C391.867 231.515 391.443 231.041 390.845 230.667C390.271 230.293 389.498 230.019 388.526 229.844C387.554 229.645 386.369 229.545 384.973 229.545H367.771V238.521ZM431.972 246.748C426.537 246.748 422.162 246.274 418.846 245.327C415.53 244.355 413.112 242.933 411.591 241.064C410.095 239.169 409.347 236.825 409.347 234.033C409.347 231.241 410.095 228.91 411.591 227.04C413.112 225.145 415.53 223.724 418.846 222.776C422.162 221.804 426.537 221.318 431.972 221.318C437.407 221.318 441.783 221.804 445.099 222.776C448.414 223.724 450.82 225.145 452.316 227.04C453.837 228.91 454.597 231.241 454.597 234.033C454.597 236.825 453.837 239.169 452.316 241.064C450.82 242.933 448.414 244.355 445.099 245.327C441.783 246.274 437.407 246.748 431.972 246.748ZM431.972 239.643C434.54 239.643 436.759 239.493 438.629 239.194C440.499 238.87 441.945 238.309 442.967 237.511C443.989 236.688 444.5 235.529 444.5 234.033C444.5 232.537 443.989 231.39 442.967 230.592C441.945 229.77 440.499 229.209 438.629 228.91C436.759 228.585 434.54 228.423 431.972 228.423C429.404 228.423 427.148 228.585 425.203 228.91C423.284 229.209 421.775 229.77 420.678 230.592C419.606 231.39 419.07 232.537 419.07 234.033C419.07 235.529 419.606 236.688 420.678 237.511C421.775 238.309 423.284 238.87 425.203 239.194C427.148 239.493 429.404 239.643 431.972 239.643Z"/>
</mask>
<path d="M236.127 238.67L232.649 240.652V222.066H241.998V246H232.649L204.489 229.695L207.967 227.675V246H198.618V222.066H207.967L236.127 238.67ZM272.096 246.748C266.661 246.748 262.285 246.274 258.969 245.327C255.653 244.355 253.235 242.933 251.714 241.064C250.218 239.169 249.47 236.825 249.47 234.033C249.47 231.241 250.218 228.91 251.714 227.04C253.235 225.145 255.653 223.724 258.969 222.776C262.285 221.804 266.661 221.318 272.096 221.318C277.531 221.318 281.906 221.804 285.222 222.776C288.538 223.724 290.944 225.145 292.44 227.04C293.96 228.91 294.721 231.241 294.721 234.033C294.721 236.825 293.96 239.169 292.44 241.064C290.944 242.933 288.538 244.355 285.222 245.327C281.906 246.274 277.531 246.748 272.096 246.748ZM272.096 239.643C274.664 239.643 276.882 239.493 278.752 239.194C280.622 238.87 282.068 238.309 283.09 237.511C284.113 236.688 284.624 235.529 284.624 234.033C284.624 232.537 284.113 231.39 283.09 230.592C282.068 229.77 280.622 229.209 278.752 228.91C276.882 228.585 274.664 228.423 272.096 228.423C269.528 228.423 267.271 228.585 265.327 228.91C263.407 229.209 261.899 229.77 260.802 230.592C259.73 231.39 259.194 232.537 259.194 234.033C259.194 235.529 259.73 236.688 260.802 237.511C261.899 238.309 263.407 238.87 265.327 239.194C267.271 239.493 269.528 239.643 272.096 239.643ZM311.552 222.066V238.895H333.355V246H302.203V222.066H311.552ZM340.661 222.066H350.01V246H340.661V222.066ZM385.347 222.066C388.713 222.066 391.493 222.39 393.687 223.038C395.881 223.686 397.601 224.572 398.848 225.693C400.094 226.815 400.967 228.099 401.465 229.545C401.989 230.966 402.251 232.462 402.251 234.033C402.251 235.604 401.964 237.112 401.391 238.558C400.817 239.979 399.87 241.251 398.548 242.372C397.252 243.494 395.519 244.379 393.35 245.028C391.206 245.676 388.538 246 385.347 246H358.421V222.066H385.347ZM367.771 238.521H384.973C386.369 238.521 387.554 238.433 388.526 238.259C389.498 238.059 390.271 237.773 390.845 237.399C391.443 237.025 391.867 236.563 392.116 236.015C392.39 235.442 392.527 234.781 392.527 234.033C392.527 233.285 392.39 232.637 392.116 232.088C391.867 231.515 391.443 231.041 390.845 230.667C390.271 230.293 389.498 230.019 388.526 229.844C387.554 229.645 386.369 229.545 384.973 229.545H367.771V238.521ZM431.972 246.748C426.537 246.748 422.162 246.274 418.846 245.327C415.53 244.355 413.112 242.933 411.591 241.064C410.095 239.169 409.347 236.825 409.347 234.033C409.347 231.241 410.095 228.91 411.591 227.04C413.112 225.145 415.53 223.724 418.846 222.776C422.162 221.804 426.537 221.318 431.972 221.318C437.407 221.318 441.783 221.804 445.099 222.776C448.414 223.724 450.82 225.145 452.316 227.04C453.837 228.91 454.597 231.241 454.597 234.033C454.597 236.825 453.837 239.169 452.316 241.064C450.82 242.933 448.414 244.355 445.099 245.327C441.783 246.274 437.407 246.748 431.972 246.748ZM431.972 239.643C434.54 239.643 436.759 239.493 438.629 239.194C440.499 238.87 441.945 238.309 442.967 237.511C443.989 236.688 444.5 235.529 444.5 234.033C444.5 232.537 443.989 231.39 442.967 230.592C441.945 229.77 440.499 229.209 438.629 228.91C436.759 228.585 434.54 228.423 431.972 228.423C429.404 228.423 427.148 228.585 425.203 228.91C423.284 229.209 421.775 229.77 420.678 230.592C419.606 231.39 419.07 232.537 419.07 234.033C419.07 235.529 419.606 236.688 420.678 237.511C421.775 238.309 423.284 238.87 425.203 239.194C427.148 239.493 429.404 239.643 431.972 239.643Z" fill="#FB8A2E"/>
<path d="M236.127 238.67L238.827 243.408C240.517 242.445 241.566 240.655 241.581 238.71C241.595 236.766 240.572 234.96 238.897 233.972L236.127 238.67ZM232.649 240.652H227.195C227.195 242.595 228.229 244.391 229.909 245.368C231.589 246.344 233.661 246.353 235.349 245.391L232.649 240.652ZM232.649 222.066V216.612C229.637 216.612 227.195 219.054 227.195 222.066H232.649ZM241.998 222.066H247.452C247.452 219.054 245.01 216.612 241.998 216.612V222.066ZM241.998 246V251.454C245.01 251.454 247.452 249.012 247.452 246H241.998ZM232.649 246L229.916 250.72C230.747 251.201 231.689 251.454 232.649 251.454V246ZM204.489 229.695L201.751 224.979C200.069 225.955 199.034 227.753 199.035 229.698C199.037 231.643 200.073 233.44 201.756 234.415L204.489 229.695ZM207.967 227.675H213.421C213.421 225.725 212.379 223.922 210.688 222.949C208.997 221.976 206.916 221.98 205.229 222.959L207.967 227.675ZM207.967 246V251.454C210.979 251.454 213.421 249.012 213.421 246H207.967ZM198.618 246H193.164C193.164 249.012 195.606 251.454 198.618 251.454V246ZM198.618 222.066V216.612C195.606 216.612 193.164 219.054 193.164 222.066H198.618ZM207.967 222.066L210.737 217.368C209.898 216.873 208.941 216.612 207.967 216.612V222.066ZM233.427 233.932L229.949 235.914L235.349 245.391L238.827 243.408L233.427 233.932ZM238.103 240.652V222.066H227.195V240.652H238.103ZM232.649 227.52H241.998V216.612H232.649V227.52ZM236.545 222.066V246H247.452V222.066H236.545ZM241.998 240.546H232.649V251.454H241.998V240.546ZM235.382 241.28L207.222 224.975L201.756 234.415L229.916 250.72L235.382 241.28ZM207.228 234.411L210.706 232.392L205.229 222.959L201.751 224.979L207.228 234.411ZM202.513 227.675V246H213.421V227.675H202.513ZM207.967 240.546H198.618V251.454H207.967V240.546ZM204.072 246V222.066H193.164V246H204.072ZM198.618 227.52H207.967V216.612H198.618V227.52ZM205.197 226.764L233.357 243.368L238.897 233.972L210.737 217.368L205.197 226.764ZM258.969 245.327L257.435 250.56C257.447 250.564 257.459 250.567 257.471 250.571L258.969 245.327ZM251.714 241.064L247.434 244.443C247.45 244.464 247.467 244.484 247.483 244.505L251.714 241.064ZM251.714 227.04L247.461 223.626L247.456 223.633L251.714 227.04ZM258.969 222.776L260.468 228.02C260.48 228.017 260.492 228.013 260.504 228.01L258.969 222.776ZM285.222 222.776L283.687 228.01C283.699 228.013 283.712 228.017 283.724 228.02L285.222 222.776ZM292.44 227.04L288.159 230.419C288.175 230.44 288.192 230.46 288.209 230.481L292.44 227.04ZM292.44 241.064L288.186 237.65L288.181 237.657L292.44 241.064ZM285.222 245.327L286.72 250.571C286.732 250.567 286.744 250.564 286.757 250.56L285.222 245.327ZM278.752 239.194L279.614 244.579C279.637 244.575 279.66 244.571 279.684 244.567L278.752 239.194ZM283.09 237.511L286.446 241.81C286.467 241.793 286.489 241.776 286.51 241.759L283.09 237.511ZM283.09 230.592L279.671 234.841C279.692 234.858 279.713 234.875 279.735 234.892L283.09 230.592ZM278.752 228.91L277.821 234.283C277.844 234.287 277.867 234.291 277.891 234.295L278.752 228.91ZM265.327 228.91L266.167 234.298C266.186 234.295 266.204 234.292 266.223 234.289L265.327 228.91ZM260.802 230.592L264.058 234.968C264.063 234.964 264.069 234.959 264.074 234.955L260.802 230.592ZM260.802 237.511L257.481 241.837C257.519 241.866 257.556 241.894 257.594 241.922L260.802 237.511ZM265.327 239.194L264.419 244.571C264.445 244.576 264.471 244.58 264.497 244.584L265.327 239.194ZM272.096 241.294C266.912 241.294 263.1 240.835 260.468 240.083L257.471 250.571C261.47 251.713 266.409 252.202 272.096 252.202V241.294ZM260.504 240.093C257.807 239.303 256.527 238.338 255.945 237.622L247.483 244.505C249.943 247.529 253.499 249.406 257.435 250.56L260.504 240.093ZM255.995 237.684C255.375 236.899 254.924 235.8 254.924 234.033H244.017C244.017 237.85 245.062 241.439 247.434 244.443L255.995 237.684ZM254.924 234.033C254.924 232.264 255.375 231.194 255.973 230.447L247.456 223.633C245.062 226.625 244.017 230.217 244.017 234.033H254.924ZM255.967 230.453C256.541 229.739 257.798 228.783 260.468 228.02L257.471 217.533C253.509 218.665 249.929 220.551 247.461 223.626L255.967 230.453ZM260.504 228.01C263.121 227.242 266.919 226.772 272.096 226.772V215.864C266.402 215.864 261.449 216.366 257.435 217.543L260.504 228.01ZM272.096 226.772C277.272 226.772 281.07 227.242 283.687 228.01L286.757 217.543C282.742 216.366 277.789 215.864 272.096 215.864V226.772ZM283.724 228.02C286.394 228.783 287.617 229.733 288.159 230.419L296.72 223.66C294.27 220.557 290.682 218.664 286.72 217.533L283.724 228.02ZM288.209 230.481C288.816 231.228 289.267 232.285 289.267 234.033H300.175C300.175 230.196 299.105 226.591 296.671 223.599L288.209 230.481ZM289.267 234.033C289.267 235.779 288.816 236.865 288.186 237.65L296.693 244.477C299.104 241.473 300.175 237.872 300.175 234.033H289.267ZM288.181 237.657C287.631 238.344 286.385 239.303 283.687 240.093L286.757 250.56C290.691 249.407 294.256 247.523 296.698 244.471L288.181 237.657ZM283.724 240.083C281.091 240.835 277.279 241.294 272.096 241.294V252.202C277.782 252.202 282.721 251.713 286.72 250.571L283.724 240.083ZM272.096 245.096C274.858 245.096 277.379 244.937 279.614 244.579L277.891 233.809C276.386 234.049 274.469 234.189 272.096 234.189V245.096ZM279.684 244.567C282.057 244.156 284.464 243.357 286.446 241.81L279.735 233.212C279.672 233.261 279.187 233.583 277.821 233.82L279.684 244.567ZM286.51 241.759C289.009 239.748 290.077 236.919 290.077 234.033H279.17C279.17 234.158 279.15 234.052 279.25 233.824C279.299 233.714 279.365 233.6 279.447 233.494C279.529 233.388 279.609 233.312 279.671 233.262L286.51 241.759ZM290.077 234.033C290.077 231.149 289.006 228.292 286.446 226.293L279.735 234.892C279.566 234.76 279.379 234.541 279.259 234.271C279.149 234.025 279.17 233.906 279.17 234.033H290.077ZM286.51 226.344C284.492 224.72 282.031 223.911 279.614 223.524L277.891 234.295C279.213 234.506 279.644 234.82 279.671 234.841L286.51 226.344ZM279.684 223.536C277.42 223.144 274.874 222.97 272.096 222.97V233.877C274.453 233.877 276.344 234.027 277.821 234.283L279.684 223.536ZM272.096 222.97C269.312 222.97 266.744 223.144 264.43 223.53L266.223 234.289C267.799 234.027 269.744 233.877 272.096 233.877V222.97ZM264.487 223.521C262.03 223.904 259.577 224.694 257.529 226.229L264.074 234.955C264.221 234.845 264.784 234.514 266.167 234.298L264.487 223.521ZM257.546 226.217C254.911 228.178 253.74 231.05 253.74 234.033H264.647C264.647 233.94 264.662 234.091 264.536 234.36C264.401 234.65 264.204 234.859 264.058 234.968L257.546 226.217ZM253.74 234.033C253.74 237.016 254.908 239.862 257.481 241.837L264.122 233.184C264.244 233.278 264.422 233.468 264.546 233.736C264.662 233.986 264.647 234.125 264.647 234.033H253.74ZM257.594 241.922C259.603 243.383 262.005 244.164 264.419 244.571L266.235 233.816C264.809 233.575 264.194 233.234 264.009 233.1L257.594 241.922ZM264.497 244.584C266.785 244.936 269.329 245.096 272.096 245.096V234.189C269.727 234.189 267.758 234.05 266.156 233.803L264.497 244.584ZM311.552 222.066H317.006C317.006 219.054 314.564 216.612 311.552 216.612V222.066ZM311.552 238.895H306.099C306.099 241.907 308.54 244.348 311.552 244.348V238.895ZM333.355 238.895H338.809C338.809 235.883 336.367 233.441 333.355 233.441V238.895ZM333.355 246V251.454C336.367 251.454 338.809 249.012 338.809 246H333.355ZM302.203 246H296.749C296.749 249.012 299.191 251.454 302.203 251.454V246ZM302.203 222.066V216.612C299.191 216.612 296.749 219.054 296.749 222.066H302.203ZM306.099 222.066V238.895H317.006V222.066H306.099ZM311.552 244.348H333.355V233.441H311.552V244.348ZM327.901 238.895V246H338.809V238.895H327.901ZM333.355 240.546H302.203V251.454H333.355V240.546ZM307.657 246V222.066H296.749V246H307.657ZM302.203 227.52H311.552V216.612H302.203V227.52ZM340.661 222.066V216.612C337.649 216.612 335.207 219.054 335.207 222.066H340.661ZM350.01 222.066H355.464C355.464 219.054 353.022 216.612 350.01 216.612V222.066ZM350.01 246V251.454C353.022 251.454 355.464 249.012 355.464 246H350.01ZM340.661 246H335.207C335.207 249.012 337.649 251.454 340.661 251.454V246ZM340.661 227.52H350.01V216.612H340.661V227.52ZM344.556 222.066V246H355.464V222.066H344.556ZM350.01 240.546H340.661V251.454H350.01V240.546ZM346.114 246V222.066H335.207V246H346.114ZM393.687 223.038L392.141 228.268L393.687 223.038ZM398.848 225.693L395.199 229.747V229.747L398.848 225.693ZM401.465 229.545L396.31 231.323C396.322 231.359 396.335 231.395 396.348 231.431L401.465 229.545ZM401.391 238.558L406.448 240.599C406.452 240.589 406.456 240.579 406.46 240.568L401.391 238.558ZM398.548 242.372L395.019 238.215C395.005 238.226 394.993 238.237 394.98 238.249L398.548 242.372ZM393.35 245.028L391.789 239.802C391.783 239.804 391.777 239.806 391.772 239.807L393.35 245.028ZM358.421 246H352.968C352.968 249.012 355.409 251.454 358.421 251.454V246ZM358.421 222.066V216.612C355.409 216.612 352.968 219.054 352.968 222.066H358.421ZM367.771 238.521H362.317C362.317 241.533 364.759 243.974 367.771 243.974V238.521ZM388.526 238.259L389.489 243.627C389.534 243.619 389.578 243.61 389.622 243.601L388.526 238.259ZM390.845 237.399L387.954 232.774C387.924 232.793 387.895 232.811 387.865 232.831L390.845 237.399ZM392.116 236.015L387.196 233.662C387.181 233.694 387.166 233.726 387.151 233.758L392.116 236.015ZM392.116 232.088L387.115 234.263C387.153 234.352 387.195 234.44 387.238 234.527L392.116 232.088ZM390.845 230.667L387.865 235.235C387.895 235.254 387.924 235.273 387.954 235.292L390.845 230.667ZM388.526 229.844L387.43 235.187C387.474 235.196 387.518 235.204 387.562 235.212L388.526 229.844ZM367.771 229.545V224.092C364.759 224.092 362.317 226.533 362.317 229.545H367.771ZM385.347 227.52C388.412 227.52 390.625 227.82 392.141 228.268L395.232 217.808C392.361 216.96 389.014 216.612 385.347 216.612V227.52ZM392.141 228.268C393.824 228.766 394.736 229.33 395.199 229.747L402.496 221.64C400.466 219.813 397.937 218.607 395.232 217.808L392.141 228.268ZM395.199 229.747C395.826 230.312 396.141 230.834 396.31 231.323L406.621 227.767C405.793 225.365 404.362 223.319 402.496 221.64L395.199 229.747ZM396.348 231.431C396.641 232.226 396.797 233.081 396.797 234.033H407.704C407.704 231.843 407.337 229.707 406.583 227.66L396.348 231.431ZM396.797 234.033C396.797 234.922 396.638 235.748 396.321 236.548L406.46 240.568C407.29 238.476 407.704 236.285 407.704 234.033H396.797ZM396.333 236.517C396.131 237.017 395.756 237.589 395.019 238.215L402.078 246.53C403.983 244.912 405.503 242.941 406.448 240.599L396.333 236.517ZM394.98 238.249C394.422 238.731 393.444 239.308 391.789 239.802L394.912 250.253C397.595 249.451 400.082 248.258 402.117 246.496L394.98 238.249ZM391.772 239.807C390.306 240.251 388.211 240.546 385.347 240.546V251.454C388.866 251.454 392.106 251.101 394.928 250.248L391.772 239.807ZM385.347 240.546H358.421V251.454H385.347V240.546ZM363.875 246V222.066H352.968V246H363.875ZM358.421 227.52H385.347V216.612H358.421V227.52ZM367.771 243.974H384.973V233.067H367.771V243.974ZM384.973 243.974C386.572 243.974 388.099 243.876 389.489 243.627L387.562 232.891C387.008 232.99 386.167 233.067 384.973 233.067V243.974ZM389.622 243.601C390.989 243.321 392.48 242.843 393.824 241.967L387.865 232.831C387.979 232.757 388.019 232.751 387.938 232.781C387.859 232.81 387.697 232.862 387.43 232.916L389.622 243.601ZM393.735 242.023C395.084 241.181 396.316 239.954 397.081 238.272L387.151 233.758C387.417 233.173 387.802 232.869 387.954 232.774L393.735 242.023ZM397.036 238.368C397.719 236.941 397.981 235.452 397.981 234.033H387.074C387.074 234.109 387.062 233.942 387.196 233.662L397.036 238.368ZM397.981 234.033C397.981 232.621 397.721 231.103 396.994 229.649L387.238 234.527C387.06 234.17 387.074 233.949 387.074 234.033H397.981ZM397.118 229.914C396.373 228.202 395.144 226.923 393.735 226.042L387.954 235.292C387.865 235.236 387.713 235.125 387.547 234.939C387.377 234.749 387.226 234.519 387.115 234.263L397.118 229.914ZM393.824 226.099C392.431 225.191 390.888 224.727 389.489 224.477L387.562 235.212C387.813 235.257 387.955 235.301 388.011 235.321C388.068 235.341 388.003 235.325 387.865 235.235L393.824 226.099ZM389.622 224.502C388.177 224.206 386.602 224.092 384.973 224.092V234.999C386.137 234.999 386.931 235.085 387.43 235.187L389.622 224.502ZM384.973 224.092H367.771V234.999H384.973V224.092ZM362.317 229.545V238.521H373.224V229.545H362.317ZM418.846 245.327L417.311 250.56C417.323 250.564 417.336 250.567 417.348 250.571L418.846 245.327ZM411.591 241.064L407.31 244.443C407.327 244.464 407.343 244.484 407.36 244.505L411.591 241.064ZM411.591 227.04L407.338 223.626L407.332 223.633L411.591 227.04ZM418.846 222.776L420.344 228.02C420.356 228.017 420.368 228.013 420.38 228.01L418.846 222.776ZM445.099 222.776L443.564 228.01C443.576 228.013 443.588 228.017 443.6 228.02L445.099 222.776ZM452.316 227.04L448.036 230.419C448.052 230.44 448.069 230.46 448.085 230.481L452.316 227.04ZM452.316 241.064L448.063 237.65L448.058 237.657L452.316 241.064ZM445.099 245.327L446.597 250.571C446.609 250.567 446.621 250.564 446.633 250.56L445.099 245.327ZM438.629 239.194L439.491 244.579C439.514 244.575 439.537 244.571 439.56 244.567L438.629 239.194ZM442.967 237.511L446.322 241.81C446.344 241.793 446.365 241.776 446.387 241.759L442.967 237.511ZM442.967 230.592L439.547 234.841C439.569 234.858 439.59 234.875 439.611 234.892L442.967 230.592ZM438.629 228.91L437.697 234.283C437.721 234.287 437.744 234.291 437.767 234.295L438.629 228.91ZM425.203 228.91L426.043 234.298C426.062 234.295 426.081 234.292 426.1 234.289L425.203 228.91ZM420.678 230.592L423.934 234.968C423.94 234.964 423.945 234.959 423.951 234.955L420.678 230.592ZM420.678 237.511L417.358 241.837C417.395 241.866 417.433 241.894 417.471 241.922L420.678 237.511ZM425.203 239.194L424.295 244.571C424.322 244.576 424.348 244.58 424.374 244.584L425.203 239.194ZM431.972 241.294C426.788 241.294 422.976 240.835 420.344 240.083L417.348 250.571C421.347 251.713 426.286 252.202 431.972 252.202V241.294ZM420.38 240.093C417.684 239.303 416.404 238.338 415.822 237.622L407.36 244.505C409.819 247.529 413.376 249.406 417.311 250.56L420.38 240.093ZM415.871 237.684C415.251 236.899 414.801 235.8 414.801 234.033H403.893C403.893 237.85 404.939 241.439 407.31 244.443L415.871 237.684ZM414.801 234.033C414.801 232.264 415.252 231.194 415.85 230.447L407.332 223.633C404.938 226.625 403.893 230.217 403.893 234.033H414.801ZM415.844 230.453C416.418 229.739 417.675 228.783 420.344 228.02L417.348 217.533C413.385 218.665 409.806 220.551 407.338 223.626L415.844 230.453ZM420.38 228.01C422.998 227.242 426.796 226.772 431.972 226.772V215.864C426.279 215.864 421.326 216.366 417.311 217.543L420.38 228.01ZM431.972 226.772C437.149 226.772 440.947 227.242 443.564 228.01L446.633 217.543C442.619 216.366 437.666 215.864 431.972 215.864V226.772ZM443.6 228.02C446.271 228.783 447.494 229.733 448.036 230.419L456.597 223.66C454.147 220.557 450.558 218.664 446.597 217.533L443.6 228.02ZM448.085 230.481C448.693 231.228 449.144 232.285 449.144 234.033H460.051C460.051 230.196 458.981 226.591 456.547 223.599L448.085 230.481ZM449.144 234.033C449.144 235.779 448.693 236.865 448.063 237.65L456.569 244.477C458.981 241.473 460.051 237.872 460.051 234.033H449.144ZM448.058 237.657C447.508 238.344 446.261 239.303 443.564 240.093L446.633 250.56C450.568 249.407 454.133 247.523 456.575 244.471L448.058 237.657ZM443.6 240.083C440.968 240.835 437.156 241.294 431.972 241.294V252.202C437.658 252.202 442.597 251.713 446.597 250.571L443.6 240.083ZM431.972 245.096C434.734 245.096 437.256 244.937 439.491 244.579L437.767 233.809C436.262 234.049 434.346 234.189 431.972 234.189V245.096ZM439.56 244.567C441.934 244.156 444.341 243.357 446.322 241.81L439.611 233.212C439.549 233.261 439.064 233.583 437.697 233.82L439.56 244.567ZM446.387 241.759C448.885 239.748 449.954 236.919 449.954 234.033H439.047C439.047 234.158 439.026 234.052 439.127 233.824C439.175 233.714 439.242 233.6 439.324 233.494C439.406 233.388 439.486 233.312 439.547 233.262L446.387 241.759ZM449.954 234.033C449.954 231.149 448.883 228.292 446.322 226.293L439.611 234.892C439.442 234.76 439.256 234.541 439.135 234.271C439.026 234.025 439.047 233.906 439.047 234.033H449.954ZM446.387 226.344C444.369 224.72 441.908 223.911 439.491 223.524L437.767 234.295C439.09 234.506 439.521 234.82 439.547 234.841L446.387 226.344ZM439.56 223.536C437.297 223.144 434.751 222.97 431.972 222.97V233.877C434.329 233.877 436.221 234.027 437.697 234.283L439.56 223.536ZM431.972 222.97C429.188 222.97 426.621 223.144 424.307 223.53L426.1 234.289C427.675 234.027 429.62 233.877 431.972 233.877V222.97ZM424.364 223.521C421.907 223.904 419.453 224.694 417.406 226.229L423.951 234.955C424.097 234.845 424.66 234.514 426.043 234.298L424.364 223.521ZM417.422 226.217C414.788 228.178 413.617 231.05 413.617 234.033H424.524C424.524 233.94 424.539 234.091 424.413 234.36C424.278 234.65 424.081 234.859 423.934 234.968L417.422 226.217ZM413.617 234.033C413.617 237.016 414.784 239.862 417.358 241.837L423.999 233.184C424.121 233.278 424.299 233.468 424.423 233.736C424.538 233.986 424.524 234.125 424.524 234.033H413.617ZM417.471 241.922C419.48 243.383 421.881 244.164 424.295 244.571L426.111 233.816C424.686 233.575 424.071 233.234 423.886 233.1L417.471 241.922ZM424.374 244.584C426.661 244.936 429.205 245.096 431.972 245.096V234.189C429.603 234.189 427.635 234.05 426.033 233.803L424.374 244.584Z" fill="white" mask="url(#path-4-outside-1_101_52)"/>
<rect x="525.5" y="356.5" width="27" height="27" fill="white" stroke="#3447FF" stroke-width="3"/>
<rect x="100.5" y="356.5" width="27" height="27" fill="white" stroke="#3447FF" stroke-width="3"/>
<rect x="100.5" y="83.5" width="27" height="27" fill="white" stroke="#3447FF" stroke-width="3"/>
<rect x="525.5" y="83.5" width="27" height="27" fill="white" stroke="#3447FF" stroke-width="3"/>
</g>
<defs>
<filter id="filter0_f_101_52" x="-651.95" y="-237.037" width="1602.96" height="1106.99" filterUnits="userSpaceOnUse" color-interpolation-filters="sRGB">
<feFlood flood-opacity="0" result="BackgroundImageFix"/>
<feBlend mode="normal" in="SourceGraphic" in2="BackgroundImageFix" result="shape"/>
<feGaussianBlur stdDeviation="163.475" result="effect1_foregroundBlur_101_52"/>
</filter>
<filter id="filter1_f_101_52" x="-74.7004" y="-377.64" width="1324.8" height="899.68" filterUnits="userSpaceOnUse" color-interpolation-filters="sRGB">
<feFlood flood-opacity="0" result="BackgroundImageFix"/>
<feBlend mode="normal" in="SourceGraphic" in2="BackgroundImageFix" result="shape"/>
<feGaussianBlur stdDeviation="136.82" result="effect1_foregroundBlur_101_52"/>
</filter>
<clipPath id="clip0_101_52">
<rect width="652" height="467" fill="white"/>
</clipPath>
</defs>
</svg>
